<svg width="242" height="32" viewBox="0 0 242 32" fill="none" xmlns="http://www.w3.org/2000/svg">
<path d="M23.7306 22.6988C23.7768 21.0442 23.2791 19.4201 22.3139 18.0753C21.3486 16.7306 19.9691 15.7395 18.3866 15.2538C19.1245 14.5588 19.7058 13.7145 20.0917 12.7771C20.4776 11.8398 20.6593 10.8309 20.6246 9.81784C20.6246 4.88484 16.6506 1.41784 11.0776 1.41784H0.389648V31.5598H13.8186C19.6196 31.5598 23.7306 27.9058 23.7306 22.6988ZM10.5756 6.71184C13.0876 6.71184 14.5036 7.99084 14.5036 10.1378C14.5036 12.2848 13.0876 13.6098 10.5756 13.6098H6.32765V6.70984L10.5756 6.71184ZM17.6556 22.4708C17.6556 24.8458 16.0556 26.2618 13.3616 26.2618H6.32765V18.6788H13.3616C16.0566 18.6788 17.6556 20.1408 17.6556 22.4708ZM28.7556 31.5608H49.5846V25.9878H34.9216V18.3598H45.2906V13.1068H34.9216V6.98584H49.0367V1.41284H28.7556V31.5608ZM84.8936 31.5608H91.5166L78.0876 0.86484H76.0316L62.5566 31.5648H69.1796L70.8696 27.6368H83.2036L84.8936 31.5608ZM81.0566 22.5608H73.0176L77.0376 12.3748L81.0566 22.5608ZM123.126 0.86084L110.382 17.1718L97.6376 0.86484H95.6276V31.5648H101.794V15.4818L109.376 24.9818H111.386L118.969 15.4818V31.5598H125.135V0.86484L123.126 0.86084ZM151.538 31.5608H158.161L144.732 0.86084H142.676L129.201 31.5608H135.824L137.514 27.6328H149.847L151.538 31.5608ZM147.701 22.5608H139.662L143.682 12.3748L147.701 22.5608ZM169.21 25.9878L184.329 3.05784V1.41284H161.678V6.98584H174.833L159.71 29.9158V31.5598H184.38V25.9878H169.21ZM189.126 31.5608H209.955V25.9878H195.297V18.3598H205.666V13.1068H195.297V6.98584H209.41V1.41284H189.13L189.126 31.5608ZM215.299 31.5608H225.165C234.712 31.6978 241.746 25.1198 241.609 16.3958C241.746 7.48884 234.709 1.32184 225.165 1.41384H215.299V31.5608ZM221.465 25.9878V6.98784H225.119C231.286 6.98784 235.26 10.5508 235.26 16.3978C235.26 22.1978 231.195 25.9898 225.119 25.9898L221.465 25.9878Z" fill="#065940"/>
</svg>
